<svg width="120" height="24" viewBox="0 0 120 24" fill="none" xmlns="http://www.w3.org/2000/svg">
<path d="M38.0265 7.2636C37.4413 5.9602 36.6965 4.843 35.7123 3.8588C34.7547 2.9012 33.6109 2.1298 32.3341 1.5712C31.0307 1.0126 29.6741 0.719999 28.2111 0.719999H21.1355L24.6733 4.2844H28.2111C29.1687 4.2844 30.0997 4.4706 30.9509 4.8164C31.8021 5.1888 32.5735 5.7208 33.2119 6.3592C33.8769 7.0242 34.3823 7.769 34.7547 8.6202C35.1271 9.498 35.3133 10.4024 35.3133 11.36C35.3133 12.3176 35.1271 13.222 34.7547 14.0998C34.3823 14.951 33.8769 15.6958 33.2385 16.3608C32.6001 17.0258 31.8287 17.5312 30.9775 17.9036C30.1263 18.2494 29.1953 18.4356 28.2111 18.4356H24.6733L21.1355 22H28.2111C29.6741 22 31.0573 21.7074 32.3341 21.1488C33.6375 20.5902 34.7813 19.8188 35.7389 18.8612C36.6965 17.877 37.4413 16.7598 38.0265 15.4564C38.5851 14.1796 38.8511 12.823 38.8511 11.36C38.8511 9.897 38.5851 8.5404 38.0265 7.2636ZM46.7533 4.2312L43.2155 0.719999V22L46.7533 18.4356V4.2312ZM60.5228 17.8238C59.6184 18.2228 58.6342 18.4356 57.5702 18.4356C55.6284 18.4356 53.926 17.7706 52.5428 16.3874C51.1596 15.0042 50.4946 13.3018 50.4946 11.36C50.4946 9.4182 51.1596 7.7424 52.5428 6.3592C53.9526 4.9494 55.6284 4.2844 57.5702 4.2844C59.5386 4.2844 61.1878 4.976 62.571 6.3592L65.1246 3.8588C64.1404 2.8746 62.9966 2.1032 61.7198 1.5446C60.4164 0.985999 59.0332 0.719999 57.5702 0.719999C54.6176 0.719999 52.1172 1.7574 50.069 3.8588C47.9676 5.9336 46.9302 8.434 46.9302 11.36C46.9302 14.3126 47.9942 16.7864 50.069 18.8612C52.1438 20.936 54.6176 22 57.5702 22C58.5012 22 59.379 21.8936 60.2302 21.6542C61.108 21.4414 61.906 21.1222 62.6508 20.6966C63.4222 20.271 64.1138 19.7656 64.7522 19.1804C65.4172 18.5952 65.9758 17.9302 66.4546 17.212L62.9168 16.0416C62.2252 16.813 61.4272 17.3982 60.5228 17.8238ZM57.5702 13.1422H62.9168L66.4546 9.6044H57.5702V13.1422ZM73.743 4.2312L70.2052 0.719999V22L73.743 18.4356V4.2312ZM73.9198 0.719999V4.2844V22H77.4842V4.2844H84.5598V0.719999H73.9198ZM88.1801 14.9244L91.3189 8.6734L94.4311 14.9244H98.4211L91.3189 0.719999L80.6789 22H84.6157L86.4245 18.4356L88.1801 14.9244ZM100.177 18.4622H96.2399L97.9955 22H101.959L100.177 18.4622ZM106.811 18.4356L103.273 22H117.451V18.4356H106.811ZM103.273 0.719999V1.3052V17.1854L106.811 13.621V1.3052V0.719999H103.273Z" fill="white"/>
<circle cx="10.5" cy="11.5" r="10.5" fill="white"/>
<path d="M15.3456 10.3816C15.3456 11.376 15.0755 12.2661 14.5353 13.0518L10.7233 19H6.98499L9.71046 14.8934C8.45822 14.7338 7.45765 14.2488 6.70876 13.4386C5.95986 12.616 5.58542 11.597 5.58542 10.3816C5.58542 9.04341 6.03353 7.95077 6.92974 7.10366C7.83823 6.25655 9.01682 5.833 10.4655 5.833C11.9142 5.833 13.0928 6.25655 14.0012 7.10366C14.8975 7.95077 15.3456 9.04341 15.3456 10.3816ZM8.88177 10.3816C8.88177 10.8727 9.02909 11.2533 9.32374 11.5234C9.60611 11.7934 9.98669 11.9285 10.4655 11.9285C10.9443 11.9285 11.3249 11.7934 11.6072 11.5234C11.9019 11.2533 12.0492 10.8727 12.0492 10.3816C12.0492 9.9028 11.9019 9.52835 11.6072 9.25826C11.3249 8.98817 10.9443 8.85312 10.4655 8.85312C9.99897 8.85312 9.61839 8.99431 9.32374 9.27668C9.02909 9.54677 8.88177 9.91508 8.88177 10.3816Z" fill="#083DCC"/>
</svg>
